<svg xmlns="http://www.w3.org/2000/svg" viewBox="0 0 1200 630" role="img" aria-label="Poker OCR to GTO insights">
  <rect width="1200" height="630" fill="#0d1117"/>
  <defs>
    <linearGradient id="bg" x1="0%" y1="0%" x2="100%" y2="100%">
      <stop offset="0%" style="stop-color:#161b22"/>
      <stop offset="100%" style="stop-color:#0d1117"/>
    </linearGradient>
  </defs>
  <rect width="1200" height="630" fill="url(#bg)"/>
  <g opacity="0.12" stroke="#30363d" stroke-width="1">
    <path d="M0 80h1200M0 160h1200M0 240h1200M0 320h1200M0 400h1200M0 480h1200M0 560h1200"/>
    <path d="M80 0v630M160 0v630M240 0v630M320 0v630M400 0v630M480 0v630M560 0v630M640 0v630M720 0v630M800 0v630M880 0v630M960 0v630M1040 0v630M1120 0v630"/>
  </g>
  <text x="80" y="200" fill="#f0f6fc" font-family="Georgia,serif" font-size="48" font-weight="400">Poker OCR to GTO Insights</text>
  <text x="80" y="280" fill="#8b949e" font-family="system-ui,sans-serif" font-size="24">Hand histories, solver, equity &amp; stats</text>
  <rect x="80" y="360" width="200" height="8" rx="4" fill="#3fb950"/>
</svg>
